General
Complete name                    : Flickan.mkv
Format                           : Matroska
File size                        : 949 MiB
Duration                         : 1h 35mn
Overall bit rate                 : 1 384 Kbps


Video
ID                               : 1
Format                           : AVC

Duration                         : 1h 35mn
Bit rate                         : 909 Kbps
Width                            : 720 pixels
Height                           : 436 pixels
Display aspect ratio             : 2.35:1
Frame rate                       : 25.000 fps
Resolution                       : 8 bits
Colorimetry                      : 4:2:0
Scan type                        : Progressive
Bits/(Pixel*Frame)               : 0.116
Stream size                      : 623 MiB (66%)
Writing library                  : x264 core 79


Audio
ID                               : 2
Format                           : AC-3
Format/Info                      : Audio Coding 3
Codec ID                         : A_AC3
Duration                         : 1h 35mn
Bit rate mode                    : Constant
Bit rate                         : 448 Kbps
Channel(s)                       : 6 channels
Channel positions                : Front: L C R, Surround: L R, LFE
Sampling rate                    : 48.0 KHz
Stream size                      : 307 MiB (32%)
Language                         : Swedish

Text #1
Language                         : Swedish

Text #2
Language                         : Danish

Text #3
Language                         : Finnish

Text #4
Language                         : Norwegian

Text #5
Language                         : English

